<svg height="480pt" viewBox="0 -8 480.09118 480" width="480pt" xmlns="http://www.w3.org/2000/svg"><path d="m368 224.089844c-24.320312.035156-47.964844 7.988281-67.359375 22.664062-21.542969-25.714844-50.953125-43.621094-83.6875-50.953125 42.101563-22.460937 63.511719-70.695312 51.9375-116.988281-11.578125-46.292969-53.175781-78.765625-100.894531-78.765625s-89.316406 32.472656-100.894532 78.765625c-11.574218 46.292969 9.835938 94.527344 51.9375 116.988281-69.472656 15.511719-118.917968 77.105469-119.039062 148.289063v120h336v-20.695313c42.085938 12.585938 87.640625-.589843 116.511719-33.699219 28.867187-33.109374 35.714843-80.039062 17.511719-120.015624-18.203126-39.980469-58.097657-65.625-102.023438-65.589844zm-288-120c0-48.601563 39.398438-88 88-88s88 39.398437 88 88c0 48.601562-39.398438 88-88 88-48.578125-.058594-87.941406-39.421875-88-88zm240 344h-304v-104c.082031-75.074219 60.925781-135.914063 136-136h32c40.464844-.191406 78.863281 17.847656 104.550781 49.113281-.550781.558594-1.03125 1.175781-1.597656 1.75-1.167969 1.226563-2.28125 2.488281-3.394531 3.761719-1.40625 1.597656-2.773438 3.261718-4.085938 4.960937-1.039062 1.34375-2.039062 2.703125-3.015625 4.085938-1.226562 1.738281-2.402343 3.511719-3.511719 5.3125-.890624 1.433593-1.761718 2.863281-2.585937 4.335937-1.039063 1.863282-2.007813 3.769532-2.945313 5.6875-.726562 1.488282-1.453124 2.96875-2.117187 4.488282-.863281 2.007812-1.601563 4.046874-2.402344 6.097656-.558593 1.511718-1.132812 3.007812-1.597656 4.542968-.695313 2.175782-1.25 4.390626-1.808594 6.609376-.375 1.46875-.800781 2.917968-1.105469 4.40625-.519531 2.480468-.871093 5-1.222656 7.519531-.175781 1.273437-.433594 2.519531-.566406 3.800781-.394531 3.828125-.59375 7.675781-.59375 11.527344 0 2.773437.105469 5.535156.3125 8.28125.0625.910156.199219 1.800781.289062 2.710937.175782 1.816407.34375 3.640625.605469 5.433594.160157 1.070313.386719 2.117187.578125 3.199219.277344 1.597656.550782 3.199218.902344 4.800781.25 1.109375.558594 2.199219.839844 3.304687.382812 1.503907.753906 3.015626 1.191406 4.503907.335938 1.117187.738281 2.214843 1.105469 3.324219.472656 1.425781.945312 2.859374 1.472656 4.265624.421875 1.113282.894531 2.191407 1.351563 3.28125.566406 1.375 1.136718 2.75 1.757812 4.09375.496094 1.074219 1.042969 2.121094 1.601562 3.203126.664063 1.308593 1.320313 2.628906 2.03125 3.917968.585938 1.039063 1.199219 2.054688 1.808594 3.082032.753906 1.253906 1.503906 2.511718 2.304688 3.742187.648437.992187 1.335937 1.96875 2.015625 2.945313.800781 1.207031 1.679687 2.398437 2.566406 3.566406.722656.953125 1.464844 1.871094 2.21875 2.800781.917969 1.136719 1.855469 2.273437 2.824219 3.375.789062.898437 1.589844 1.777344 2.398437 2.648437 1.007813 1.070313 2.023438 2.128907 3.070313 3.199219.859375.800781 1.722656 1.65625 2.601562 2.472657 1.089844 1.007812 2.183594 1.992187 3.3125 2.953124.910156.800782 1.839844 1.542969 2.785156 2.296876 1.152344.925781 2.328126 1.820312 3.519532 2.703124.980468.722657 1.976562 1.4375 2.984375 2.136719 1.214843.796875 2.453125 1.597657 3.703125 2.398438 1.054687.664062 2.113281 1.3125 3.199218 1.945312 1.273438.742188 2.558594 1.445313 3.863282 2.144531 1.128906.597657 2.257812 1.199219 3.410156 1.765626.472656.234374.917969.496093 1.398438.71875zm48-16c-53.019531 0-96-42.980469-96-96 0-53.019532 42.980469-96 96-96s96 42.980468 96 96c.046875 25.476562-10.050781 49.921875-28.066406 67.933594-18.011719 18.015624-42.457032 28.113281-67.933594 28.066406zm0 0"/><path d="m392 312.089844v-48h-48v48h-48v48h48v48h48v-48h48v-48zm32 32h-48v48h-16v-48h-48v-16h48v-48h16v48h48zm0 0"/></svg>