<svg id="Layer_1" enable-background="new 0 0 56.69 56.69" height="512" viewBox="0 0 56.69 56.69" width="512" xmlns="http://www.w3.org/2000/svg"><g><path d="m37.176 50.505c-1.202 0-2.332-.468-3.182-1.318l-17.659-17.659c-.852-.852-1.32-1.982-1.32-3.184s.468-2.332 1.318-3.182l17.661-17.66c.85-.85 1.979-1.318 3.182-1.318s2.332.468 3.182 1.318c.851.85 1.318 1.98 1.318 3.183s-.469 2.333-1.318 3.182l-14.479 14.478 14.479 14.478c.85.85 1.318 1.979 1.318 3.182s-.469 2.332-1.318 3.182c-.85.85-1.981 1.318-3.182 1.318zm-19.458-20.423.031.03 17.66 17.66c.945.945 2.59.945 3.535 0 .473-.473.732-1.1.732-1.768s-.26-1.295-.732-1.768l-15.893-15.891 15.893-15.892c.473-.472.732-1.1.732-1.768s-.26-1.296-.732-1.769c-.945-.944-2.59-.944-3.535 0l-17.661 17.66c-.472.472-.732 1.1-.732 1.767-.001.655.248 1.27.702 1.739z"/></g></svg>