<svg id="Layer_1" enable-background="new 0 0 56.69 56.69" height="512" viewBox="0 0 56.69 56.69" width="512" xmlns="http://www.w3.org/2000/svg"><g><path d="m19.515 50.505c-1.202 0-2.332-.468-3.182-1.318s-1.318-1.979-1.318-3.182.469-2.332 1.318-3.182l14.479-14.479-14.479-14.477c-.85-.849-1.318-1.979-1.318-3.182s.468-2.332 1.318-3.183c.85-.85 1.979-1.317 3.182-1.317s2.332.468 3.182 1.317l17.661 17.66c.851.85 1.318 1.979 1.318 3.182s-.468 2.332-1.318 3.182l-17.661 17.66c-.85.851-1.98 1.319-3.182 1.319zm0-42.319c-.668 0-1.295.26-1.768.731-.473.473-.732 1.101-.732 1.769s.26 1.296.732 1.768l15.893 15.891-15.893 15.892c-.473.473-.732 1.1-.732 1.768s.26 1.295.732 1.768c.945.945 2.59.945 3.535 0l17.705-17.704c.443-.466.688-1.076.688-1.724 0-.668-.26-1.295-.732-1.767l-17.661-17.661c-.472-.472-1.099-.731-1.767-.731z"/></g></svg>