<svg id="Layer_1" enable-background="new 0 0 56.69 56.69" height="512" viewBox="0 0 56.69 56.69" width="512" xmlns="http://www.w3.org/2000/svg"><g><path d="m8.497 25.163 10.709-10.708c.85-.85 1.98-1.318 3.182-1.318 1.203 0 2.333.468 3.182 1.319.85.849 1.318 1.979 1.318 3.182 0 1.202-.468 2.332-1.318 3.182l-3.026 3.026h22.469c2.481 0 4.5 2.019 4.5 4.5s-2.019 4.5-4.5 4.5h-22.47l3.027 3.027c.85.85 1.318 1.979 1.318 3.182s-.468 2.332-1.318 3.182c-.851.849-1.981 1.317-3.183 1.317-1.203 0-2.333-.469-3.182-1.318l-10.827-10.837c-.184-.177-1.415-1.4-1.31-3.298.095-1.716 1.213-2.746 1.429-2.938zm1.472 5.009 10.651 10.649c.944.944 2.59.946 3.535 0 .472-.473.732-1.1.732-1.768s-.26-1.295-.732-1.768l-6.441-6.441h27.298c1.379 0 2.5-1.121 2.5-2.5 0-1.378-1.121-2.5-2.5-2.5h-27.298l6.441-6.44c.472-.472.732-1.1.732-1.768s-.26-1.296-.732-1.768c-.943-.944-2.591-.945-3.535 0l-10.708 10.709c-.127.144-.716.845-.667 1.89.043.943.577 1.548.724 1.705z"/></g></svg>