<svg xmlns="http://www.w3.org/2000/svg" xmlns:xlink="http://www.w3.org/1999/xlink" version="1.1" id="Capa_1" x="0px" y="0px" viewBox="0 0 512 512" style="enable-background:new 0 0 512 512;" xml:space="preserve" width="512" height="512">
<g>
	<path style="fill:#FCCD04;" d="M256,190.667c-8.284,0-15-6.716-15-15V95.333c0-8.284,6.716-15,15-15s15,6.716,15,15v80.333   C271,183.951,264.284,190.667,256,190.667z"/>
	<path style="fill:#FDAF06;" d="M271,175.667V95.333c0-8.284-6.716-15-15-15v110.333C264.284,190.667,271,183.951,271,175.667z"/>
	<path style="fill:#FDAF06;" d="M320.267,399.533h96.4c3.978,0,7.793-1.581,10.606-4.394l39.812-39.812   C496.049,326.364,512,287.854,512,246.894c0-47.623-38.505-86.227-86.208-86.227h-9.126c-8.284,0-11.501,7.491-15,15l-96.4,208.867   C302.068,392.175,311.982,399.533,320.267,399.533z"/>
	<path style="fill:#FCCD04;" d="M191.733,399.533h-96.4c-3.978,0-7.793-1.581-10.606-4.394l-39.812-39.812   C15.951,326.364,0,287.854,0,246.894c0-47.623,38.505-86.227,86.208-86.227h9.126c8.284,0,11.501,7.491,15,15l96.4,208.867   C209.932,392.175,200.018,399.533,191.733,399.533z"/>
	<path style="fill:#8000B8;" d="M320.267,399.533H191.733c-3.509,0-6.907-1.23-9.603-3.477l-27.028-22.523   c-81.794-68.16-74.77-160.539-74.77-173.767c0-48.137,39.163-87.3,87.3-87.3c18.765,0,37.367,6.201,52.38,17.46L256,156.917   l35.986-26.99c15.014-11.259,33.615-17.46,52.38-17.46c48.138,0,87.301,39.163,87.301,87.3c0,13.229,7.024,105.605-74.771,173.767   l-27.027,22.523C327.173,398.303,323.775,399.533,320.267,399.533z"/>
	<path style="fill:#470070;" d="M320.267,399.533c3.509,0,6.906-1.23,9.603-3.477l27.027-22.523   c81.795-68.162,74.771-160.538,74.771-173.767c0-48.137-39.163-87.3-87.301-87.3c-18.765,0-37.366,6.201-52.38,17.46L256,156.917   v242.617H320.267z"/>
	<path style="fill:#F3EEE9;" d="M400.6,495.933H111.4c-34.849,0-63.2-28.351-63.2-63.2s28.351-63.2,63.2-63.2h289.2   c34.849,0,63.2,28.352,63.2,63.2S435.448,495.933,400.6,495.933z"/>
	<path style="fill:#E9DFDA;" d="M400.6,369.533H256v126.4h144.6c34.849,0,63.2-28.351,63.2-63.2S435.448,369.533,400.6,369.533z"/>
	<circle style="fill-rule:evenodd;clip-rule:evenodd;fill:#02DC7E;" cx="127.467" cy="432.733" r="15"/>
	<circle style="fill-rule:evenodd;clip-rule:evenodd;fill:#01B66E;" cx="384.533" cy="432.733" r="15"/>
	<circle style="fill-rule:evenodd;clip-rule:evenodd;fill:#02DC7E;" cx="191.733" cy="432.733" r="15"/>
	<circle style="fill-rule:evenodd;clip-rule:evenodd;fill:#01B66E;" cx="320.267" cy="432.733" r="15"/>
	<path style="fill:#B900FF;" d="M256,110.333c-25.989,0-47.133-21.144-47.133-47.133S230.011,16.067,256,16.067   s47.134,21.144,47.134,47.133S281.989,110.333,256,110.333z"/>
	<path style="fill:#8000B8;" d="M303.134,63.2c0-25.989-21.145-47.133-47.134-47.133v94.267   C281.989,110.333,303.134,89.189,303.134,63.2z"/>
	<circle style="fill-rule:evenodd;clip-rule:evenodd;fill:#02DC7E;" cx="256" cy="432.733" r="15"/>
	<path style="fill-rule:evenodd;clip-rule:evenodd;fill:#01B66E;" d="M271,432.733c0-8.279-6.721-15-15-15v30   C264.279,447.733,271,441.012,271,432.733z"/>
</g>















</svg>