<svg version="1.1" id="Capa_1" xmlns="http://www.w3.org/2000/svg" xmlns:xlink="http://www.w3.org/1999/xlink" x="0px" y="0px" viewBox="0 0 508 508" style="enable-background:new 0 0 508 508;" xml:space="preserve">
<g>
	<g>
		<path d="M455.3,344.1L376,213h-56.4v16.4h47.2l69.4,114.7H71.9l69.4-114.7h47.2V213H132L52.7,344.1H41V508h426V344.1H455.3z     M450.7,491.6h-0.1H57.4V360.5h393.3V491.6z"/>
	</g>
</g>
<g>
	<g>
		<polygon points="319.5,409.7 319.5,434.3 188.5,434.3 188.5,409.7 172.1,409.7 172.1,450.6 335.9,450.6 335.9,409.7   "/>
	</g>
</g>
<g>
	<g>
		<path d="M385.1,376.9v49.2h49.2v-49.2H385.1z M417.9,409.7h-16.4v-16.4h16.4V409.7z"/>
	</g>
</g>
<g>
	<g>
		<path d="M139.3,0v131.1h229.4V0H139.3z M331.5,16.4L254,64.1l-77.6-47.7H331.5z M155.7,22.9l69.4,42.6l-69.4,42.7V22.9z     M176.4,114.7l64.3-39.5l13.3,8.2l13.3-8.2l64.3,39.5H176.4z M352.4,108.2L283,65.5l69.4-42.7V108.2z"/>
	</g>
</g>
<g>
	<g>
		<path d="M295,245.8v-98.3h-65.6v98.3h-33.6l66.3,81.9l66.3-81.9H295z M245.8,163.9h32.8v81.9h-32.8V163.9z M262.2,301.7l-32-39.5    h63.9L262.2,301.7z"/>
	</g>
</g>
<g>
</g>
<g>
</g>
<g>
</g>
<g>
</g>
<g>
</g>
<g>
</g>
<g>
</g>
<g>
</g>
<g>
</g>
<g>
</g>
<g>
</g>
<g>
</g>
<g>
</g>
<g>
</g>
<g>
</g>
</svg>