<svg xmlns="http://www.w3.org/2000/svg" xmlns:xlink="http://www.w3.org/1999/xlink" version="1.1" id="Capa_1" x="0px" y="0px" viewBox="0 0 512 512" style="enable-background:new 0 0 512 512;" xml:space="preserve" width="512" height="512">
<g>
	<g>
		<g>
			<g>
				<g>
					<path style="fill:#4BB9EC;" d="M256,302c-57.9,0-105,47.1-105,105s47.1,105,105,105s105-47.1,105-105S313.9,302,256,302z"/>
				</g>
			</g>
		</g>
	</g>
	<g>
		<g>
			<path style="fill:#537983;" d="M389.5,247.8l-120-240C266.8,2.701,261.4,0,256,0s-10.8,2.701-13.5,7.8l-120,240     c-2.699,5.7-1.8,12.601,3.001,17.1c4.499,4.801,11.4,5.7,17.098,3.001L256,211.201l113.401,56.7     c5.698,2.699,12.599,1.8,17.098-3.001C391.3,260.402,392.199,253.5,389.5,247.8z"/>
		</g>
	</g>
	<path style="fill:#0095FF;" d="M361,407c0,57.9-47.1,105-105,105V302C313.9,302,361,349.1,361,407z"/>
	<path style="fill:#3E5959;" d="M386.499,264.901c-4.499,4.801-11.4,5.7-17.098,3.001L256,211.201V0c5.4,0,10.8,2.701,13.5,7.8   l120,240C392.199,253.5,391.3,260.402,386.499,264.901z"/>
</g>















</svg>