<svg id="Layer_1" enable-background="new 0 0 512 512" height="512" viewBox="0 0 512 512" width="512" xmlns="http://www.w3.org/2000/svg"><g><g><path d="m256 512c-5.926 0-11.297-3.489-13.706-8.904l-56.569-127.196c-74.577-28.881-124.225-100.956-124.225-181.4 0-107.248 87.252-194.5 194.5-194.5s194.5 87.252 194.5 194.5c0 80.444-49.648 152.519-124.225 181.4l-56.569 127.195c-2.409 5.416-7.779 8.905-13.706 8.905z" fill="#4793ff"/></g><path d="m256 0v512c5.927 0 11.297-3.489 13.706-8.904l56.57-127.196c74.576-28.881 124.224-100.956 124.224-181.4 0-107.248-87.252-194.5-194.5-194.5z" fill="#525cdd"/><g><path d="m256 301c-19.444 0-48.331-23.438-67.16-43.509-16.092-17.153-43.089-50.92-43.089-84.342 0-35.923 29.226-65.148 65.148-65.148 17.234 0 33.211 6.607 45.101 18.05 11.89-11.444 27.866-18.05 45.101-18.05 35.924 0 65.149 29.226 65.149 65.148 0 36.25-27.092 69.709-43.24 86.427-18.458 19.11-47.083 41.424-67.01 41.424z" fill="#f9bbde"/></g><path d="m301.101 108.001c-17.235 0-33.211 6.605-45.101 18.049v174.95c19.927 0 48.552-22.315 67.01-41.424 16.148-16.718 43.24-50.177 43.24-86.427 0-35.922-29.225-65.148-65.149-65.148z" fill="#fe7cb8"/></g></svg>