<svg height="512" viewBox="0 0 64 64" width="512" xmlns="http://www.w3.org/2000/svg"><g id="Mail-5" data-name="Mail"><path d="m57 53v2a4 4 0 0 1 -4 4h-46a4 4 0 0 1 -4-4v-1.94l22.79-15.25 4.21 2.19 4.32-2.12z" fill="#fee9ab"/><path d="m57 32v21l-22.68-15.12 4.41-2.16a15.792 15.792 0 0 0 6.27 1.28 15.974 15.974 0 0 0 11.8-5.19z" fill="#ff7956"/><path d="m45 5a16 16 0 1 1 0 32 15.792 15.792 0 0 1 -6.27-1.28 16 16 0 0 1 6.27-30.72z" fill="#46f8ff"/><path d="m38.73 35.72-4.41 2.16-4.32 2.12-4.21-2.19-22.79-11.87v-.94a4 4 0 0 1 4-4h22a15.99 15.99 0 0 0 9.73 14.72z" fill="#fee9ab"/><path d="m25.79 37.81-22.79 15.25v-27.12z" fill="#ff7956"/><path d="m62 21a16.989 16.989 0 0 0 -33.949-1h-21.051a5.006 5.006 0 0 0 -5 5v30a5.006 5.006 0 0 0 5 5h46a5.006 5.006 0 0 0 5-5v-23h-.062a16.914 16.914 0 0 0 4.062-11zm-17 17a16.914 16.914 0 0 0 11-4.062v17.194l-19.677-13.118 2.462-1.207a16.882 16.882 0 0 0 6.215 1.193zm0-32a15 15 0 1 1 -15 15 15.017 15.017 0 0 1 15-15zm-38 16h21.051a16.993 16.993 0 0 0 8.449 13.7l-6.486 3.179-26.014-13.546v-.333a3 3 0 0 1 3-3zm16.833 15.916-19.833 13.272v-23.6zm29.167 20.084h-46a3 3 0 0 1 -3-3v-1.406l21.856-14.625 3.682 1.918a1 1 0 0 0 .9.011l3.806-1.866 21.756 14.503v1.465a3 3 0 0 1 -3 3z"/><path d="m56 21h2a13.015 13.015 0 0 0 -13-13v2a11.013 11.013 0 0 1 11 11z"/><path d="m20 54h28v2h-28z"/><path d="m14 54h4v2h-4z"/><path d="m24 50h20v2h-20z"/><path d="m18 50h4v2h-4z"/><path d="m44 28h2v-6h6v-2h-6v-6h-2v6h-6v2h6z"/></g></svg>