<svg version="1.1" id="Capa_1" xmlns="http://www.w3.org/2000/svg" xmlns:xlink="http://www.w3.org/1999/xlink" x="0px" y="0px" viewBox="0 0 512 512" style="enable-background:new 0 0 512 512;" xml:space="preserve">
<g>
	<polygon style="fill:#69788D;" points="378.958,503.917 393.628,449.169 448.376,463.839 324.133,248.645 254.715,288.723  "/>
	<polygon style="fill:#69788D;" points="133.042,503.917 118.372,449.169 63.624,463.839 187.867,248.645 257.285,288.723  "/>
</g>
<g>
	<polygon style="fill:#56677E;" points="256,287.982 257.285,288.723 256,290.948 312.955,389.598 350.9,389.598 382.026,350.567    382.771,350.209 324.133,248.645  "/>
	<polygon style="fill:#56677E;" points="254.715,288.723 256,287.982 187.867,248.645 129.229,350.209 129.974,350.567    161.1,389.598 199.045,389.598 256,290.948  "/>
</g>
<polygon style="fill:#FFDB66;" points="256,9.399 293.661,27.535 335.46,27.535 361.521,60.216 399.182,78.351 408.483,119.103   434.545,151.784 425.244,192.535 434.545,233.287 408.483,265.967 399.182,306.718 361.521,324.855 335.46,357.536 293.661,357.536   256,375.671 218.339,357.536 176.54,357.536 150.479,324.855 112.818,306.718 103.517,265.967 77.455,233.287 86.756,192.535   77.455,151.784 103.517,119.103 112.818,78.351 150.479,60.216 176.54,27.535 218.339,27.535 "/>
<circle style="fill:#F7C14D;" cx="256" cy="192.536" r="152.297"/>
<circle style="fill:#FF8C78;" cx="256" cy="192.536" r="136.266"/>
<circle style="fill:#DB6B5E;" cx="256" cy="192.536" r="120.235"/>
<polygon style="fill:#C7CCD4;" points="159.812,152.457 159.812,184.52 256,296.739 352.188,184.52 352.188,152.457 "/>
<polygon style="fill:#A1ABB8;" points="159.812,152.457 159.812,184.52 256,296.739 256,152.457 "/>
<polygon style="fill:#B4BBC6;" points="207.906,152.457 207.906,184.52 256,296.739 304.094,184.52 304.094,152.457 "/>
<polygon style="fill:#ECEEF1;" points="352.188,152.457 328.141,120.394 183.859,120.394 159.812,152.457 "/>
<polygon style="fill:#C7CCD4;" points="256,152.457 256,120.394 183.859,120.394 159.812,152.457 "/>
<polygon style="fill:#D9DDE2;" points="304.094,152.457 280.047,120.394 231.953,120.394 207.906,152.457 "/>
<rect x="159.812" y="152.458" style="fill:#B4BBC6;" width="48.094" height="32.063"/>
<rect x="207.906" y="152.458" style="fill:#C7CCD4;" width="96.188" height="32.063"/>
<rect x="304.094" y="152.458" style="fill:#D9DDE2;" width="48.094" height="32.063"/>
<g>
	<path style="fill:#F9CE70;" d="M39.577,224.598c0,30.989,14.355,56.11,32.063,56.11c-17.708,0-32.063,25.121-32.063,56.11   c0-30.989-14.355-56.11-32.063-56.11C25.222,280.707,39.577,255.586,39.577,224.598z"/>
	<path style="fill:#F9CE70;" d="M480.438,360.864c0,17.708,10.766,32.063,24.047,32.063c-13.281,0-24.047,14.355-24.047,32.063   c0-17.708-10.766-32.063-24.047-32.063C469.672,392.927,480.438,378.572,480.438,360.864z"/>
	<path style="fill:#F9CE70;" d="M432.344,8.175c0,17.708,10.766,32.063,24.047,32.063c-13.281,0-24.047,14.355-24.047,32.063   c0-17.708-10.766-32.063-24.047-32.063C421.578,40.238,432.344,25.883,432.344,8.175z"/>
</g>
<path d="M454.883,460.082L377.252,325.62l25.19-12.131c2.061-0.992,3.557-2.868,4.066-5.098l8.919-39.08l24.992-31.339  c1.427-1.787,1.961-4.127,1.451-6.357l-8.918-39.079l8.918-39.079c0.51-2.23-0.024-4.57-1.451-6.357l-24.992-31.339l-8.919-39.08  c-0.509-2.23-2.005-4.106-4.066-5.098l-36.116-17.392l-24.992-31.338c-1.426-1.788-3.588-2.83-5.874-2.83h-40.084L259.26,2.629  c-2.061-0.992-4.46-0.992-6.521,0L216.624,20.02H176.54c-2.286,0-4.449,1.041-5.874,2.83l-24.992,31.338L109.558,71.58  c-2.061,0.992-3.557,2.868-4.066,5.098l-8.919,39.08l-24.993,31.34c-1.427,1.787-1.961,4.127-1.451,6.357l8.918,39.079  l-8.918,39.079c-0.51,2.23,0.024,4.57,1.451,6.357l24.992,31.339l8.919,39.08c0.509,2.23,2.005,4.106,4.066,5.098l25.19,12.131  L57.116,460.082c-3.277,5.677,2.125,12.715,8.454,11.016l47.489-12.725l12.726,47.49c1.694,6.322,10.486,7.495,13.766,1.813  l81.198-140.64l31.991,15.405c2.043,0.984,4.477,0.984,6.521,0l31.991-15.405l81.199,140.64c3.28,5.681,12.072,4.512,13.766-1.813  l12.726-47.49l47.489,12.725C452.757,472.795,458.162,465.761,454.883,460.082z M135.605,484.449l-9.974-37.225  c-1.059-3.952-5.248-6.37-9.204-5.313l-37.223,9.974l68.437-118.538l23.025,28.871c1.426,1.789,3.588,2.83,5.874,2.83h28  L135.605,484.449z M290.4,350.765L256,367.331l-34.4-16.565c-1.017-0.49-2.131-0.744-3.26-0.744h-38.18l-23.806-29.85  c-0.703-0.883-1.597-1.596-2.614-2.085l-34.4-16.566l-8.496-37.224c-0.25-1.101-0.746-2.13-1.451-3.013l-23.805-29.851l8.496-37.223  c0.251-1.101,0.251-2.243,0-3.345l-8.496-37.223l23.805-29.851c0.704-0.883,1.2-1.912,1.451-3.013l8.496-37.224l34.4-16.566  c1.018-0.489,1.911-1.202,2.614-2.085l23.806-29.85h38.18c1.129,0,2.243-0.255,3.26-0.744L256,17.74l34.4,16.565  c1.017,0.49,2.131,0.744,3.26,0.744h38.18l23.806,29.85c0.703,0.883,1.597,1.596,2.614,2.085l34.4,16.566l8.496,37.224  c0.25,1.101,0.746,2.13,1.451,3.013l23.805,29.851l-8.496,37.223c-0.251,1.101-0.251,2.243,0,3.345l8.496,37.223l-23.805,29.851  c-0.704,0.883-1.2,1.912-1.451,3.013l-8.496,37.224l-34.4,16.566c-1.018,0.489-1.911,1.202-2.614,2.085l-23.806,29.85h-38.18  C292.531,350.021,291.417,350.274,290.4,350.765z M395.574,441.911c-3.954-1.064-8.146,1.366-9.204,5.313l-9.974,37.225  L307.46,365.05h28.001c2.286,0,4.449-1.041,5.874-2.83l23.025-28.871l68.437,118.538L395.574,441.911z"/>
<path d="M399.781,192.535c0-39.343-15.586-76.069-43.887-103.412c-2.984-2.886-7.742-2.802-10.625,0.183  c-2.884,2.985-2.802,7.742,0.183,10.625c25.341,24.486,39.299,57.374,39.299,92.604c0,70.994-57.758,128.751-128.751,128.751  s-128.751-57.758-128.751-128.751S185.006,63.784,256,63.784c21.145,0,42.109,5.235,60.626,15.137  c3.66,1.959,8.214,0.577,10.17-3.082c1.958-3.659,0.577-8.213-3.082-10.17C303.026,54.603,279.609,48.754,256,48.754  c-79.281,0-143.781,64.5-143.781,143.781S176.719,336.316,256,336.316S399.781,271.816,399.781,192.535z"/>
<path d="M183.859,112.88c-2.365,0-4.593,1.113-6.012,3.006L153.8,147.948c-0.964,1.286-1.503,2.902-1.503,4.509v32.063  c0,1.761,0.649,3.559,1.81,4.891l96.143,112.166c2.969,3.516,8.528,3.488,11.501,0l96.143-112.166c1.16-1.332,1.81-3.128,1.81-4.891  v-32.063c0-1.607-0.538-3.223-1.503-4.509l-24.047-32.063c-1.419-1.893-3.647-3.006-6.012-3.006L183.859,112.88L183.859,112.88z   M276.29,127.909l12.775,17.033h-66.129l12.775-17.033H276.29z M296.579,177.005h-81.159v-17.033h81.159V177.005z M292.698,192.034  L256,277.663l-36.698-85.628H292.698z M200.391,177.005h-33.065v-17.033h33.065V177.005z M202.951,192.034l26.8,62.534  l-53.601-62.534H202.951z M309.049,192.034h26.8l-53.601,62.534L309.049,192.034z M344.673,177.005h-33.065v-17.033h33.065V177.005z   M187.616,127.909h29.307l-12.775,17.033h-29.307L187.616,127.909z M337.159,144.942h-29.307l-12.775-17.033h29.307L337.159,144.942  z"/>
<path d="M71.64,288.222c4.151,0,7.515-3.364,7.515-7.515c0-4.151-3.364-7.515-7.515-7.515c-11.611,0-24.548-19.957-24.548-48.595  c0-4.151-3.364-7.515-7.515-7.515s-7.515,3.364-7.515,7.515c0,28.638-12.937,48.595-24.548,48.595c-4.151,0-7.515,3.364-7.515,7.515  c0,4.151,3.364,7.515,7.515,7.515c11.611,0,24.548,19.957,24.548,48.595c0,4.151,3.364,7.515,7.515,7.515s7.515-3.364,7.515-7.515  C47.092,308.179,60.029,288.222,71.64,288.222z M39.577,299.063c-3.438-7.606-7.91-13.887-13.115-18.356  c5.204-4.469,9.677-10.75,13.115-18.356c3.438,7.606,7.91,13.887,13.115,18.356C47.488,285.176,43.015,291.457,39.577,299.063z"/>
<path d="M504.485,385.412c-8.962,0-16.532-11.242-16.532-24.548c0-4.151-3.364-7.515-7.515-7.515s-7.515,3.364-7.515,7.515  c0,13.306-7.571,24.548-16.532,24.548c-4.151,0-7.515,3.364-7.515,7.515c0,4.151,3.364,7.515,7.515,7.515  c8.961,0,16.532,11.242,16.532,24.548c0,4.151,3.364,7.515,7.515,7.515s7.515-3.364,7.515-7.515  c0-13.306,7.571-24.548,16.532-24.548c4.151,0,7.515-3.364,7.515-7.515C512,388.776,508.636,385.412,504.485,385.412z   M480.438,399.382c-1.641-2.419-3.51-4.589-5.563-6.456c2.053-1.867,3.922-4.037,5.563-6.456c1.641,2.419,3.51,4.589,5.563,6.456  C483.948,394.793,482.08,396.964,480.438,399.382z"/>
<path d="M408.297,47.752c8.961,0,16.532,11.242,16.532,24.548c0,4.151,3.364,7.515,7.515,7.515s7.515-3.364,7.515-7.515  c0-13.306,7.571-24.548,16.532-24.548c4.151,0,7.515-3.364,7.515-7.515s-3.364-7.515-7.515-7.515  c-8.962,0-16.532-11.242-16.532-24.548c0-4.151-3.364-7.515-7.515-7.515s-7.515,3.364-7.515,7.515  c0,13.306-7.571,24.548-16.532,24.548c-4.151,0-7.515,3.364-7.515,7.515S404.146,47.752,408.297,47.752z M432.344,33.781  c1.641,2.419,3.51,4.589,5.563,6.456c-2.053,1.867-3.922,4.037-5.563,6.456c-1.641-2.419-3.51-4.589-5.563-6.456  C428.835,38.371,430.703,36.201,432.344,33.781z"/>
<g>
</g>
<g>
</g>
<g>
</g>
<g>
</g>
<g>
</g>
<g>
</g>
<g>
</g>
<g>
</g>
<g>
</g>
<g>
</g>
<g>
</g>
<g>
</g>
<g>
</g>
<g>
</g>
<g>
</g>
</svg>