<svg id="Layer_1" enable-background="new 0 0 512 512" height="512" viewBox="0 0 512 512" width="512" xmlns="http://www.w3.org/2000/svg"><g><g><g><path d="m330 345c-3.839 0-7.678-1.464-10.606-4.394l-42.717-42.716c-5.858-5.857-5.858-15.355 0-21.213 5.857-5.858 15.355-5.858 21.213 0l42.717 42.716c5.858 5.857 5.858 15.355 0 21.213-2.929 2.93-6.768 4.394-10.607 4.394z" fill="#f6efea"/></g></g><circle clip-rule="evenodd" cx="174.5" cy="174.5" fill="#f6efea" fill-rule="evenodd" r="159.5"/><path clip-rule="evenodd" d="m61.717 61.717c-62.289 62.289-62.289 163.278 0 225.567s163.278 62.289 225.567 0z" fill="#fff4f4" fill-rule="evenodd"/><path d="m174.5 349c-46.61 0-90.432-18.151-123.39-51.11-32.959-32.958-51.11-76.779-51.11-123.39 0-46.61 18.151-90.431 51.11-123.39 32.958-32.959 76.78-51.11 123.39-51.11s90.432 18.151 123.39 51.11c32.959 32.959 51.11 76.78 51.11 123.39s-18.151 90.431-51.11 123.39c-32.958 32.959-76.78 51.11-123.39 51.11zm0-319c-38.598 0-74.885 15.031-102.177 42.323-27.293 27.293-42.323 63.58-42.323 102.177s15.03 74.884 42.323 102.177c27.292 27.293 63.579 42.323 102.177 42.323s74.885-15.03 102.177-42.323c27.293-27.292 42.323-63.579 42.323-102.177s-15.03-74.885-42.323-102.177c-27.292-27.292-63.579-42.323-102.177-42.323zm-112.783 31.717h.01z" fill="#4793ff"/><g><path d="m174.5 259.729c-22.461 0-53.41-31.777-59.386-38.147-14.077-15.005-37.692-44.584-37.692-74.098 0-32.099 26.114-58.214 58.214-58.214 14.717 0 28.407 5.391 38.864 14.793 10.457-9.402 24.147-14.793 38.864-14.793 32.1 0 58.214 26.115 58.214 58.214 0 31.966-23.71 61.285-37.843 75.917-16.187 16.759-41.414 36.328-59.235 36.328z" fill="#ff415b"/></g><path d="m276.677 276.677c-5.858 5.858-5.858 15.355 0 21.213l42.717 42.716c2.928 2.93 6.767 4.394 10.606 4.394s7.678-1.464 10.606-4.394z" fill="#fff4f4"/><path d="m276.677 276.677c-27.292 27.293-63.579 42.323-102.177 42.323s-74.885-15.03-102.177-42.323c-27.293-27.292-42.323-63.579-42.323-102.177s15.03-74.885 42.323-102.177l-21.213-21.213c-32.959 32.959-51.11 76.78-51.11 123.39s18.151 90.431 51.11 123.39c32.958 32.959 76.78 51.11 123.39 51.11s90.432-18.151 123.39-51.11z" fill="#7dd5f4"/><path d="m213.364 89.271c-14.717 0-28.407 5.391-38.864 14.793v155.666c17.821 0 43.048-19.57 59.235-36.329 14.133-14.631 37.843-43.95 37.843-75.917 0-32.099-26.114-58.213-58.214-58.213z" fill="#e50058"/><path d="m383.187 489.959c14.212 14.213 33.172 22.041 53.386 22.041s39.174-7.828 53.386-22.04c14.213-14.213 22.041-33.173 22.041-53.387s-7.827-39.173-22.04-53.386l-10.918-10.918-106.773 106.773z" fill="#ff8856"/><path d="m486.961 380.188-58.396-58.395c-14.135-14.135-32.969-21.919-53.033-21.919-20.063 0-38.897 7.784-53.032 21.919l-.708.708c-29.242 29.242-29.242 76.822 0 106.065l58.396 58.396z" fill="#38336b"/><path d="m424.609 425.801-52.075 54.666 11.179 10.65c14.554 13.864 33.698 21.229 53.906 20.739s38.972-8.776 52.835-23.329z" fill="#fdbf00"/><path d="m322.146 322.146-.354.354c-29.242 29.242-29.242 76.822 0 106.065l58.396 58.396 53.386-53.387z" fill="#453d81"/></g></svg>